<svg xmlns="http://www.w3.org/2000/svg" viewBox="0 0 576 432" width="576" height="432" role="img" aria-label="The three KHR_audio_emitter distance models">
  <title>The three KHR_audio_emitter distance models</title>
  <g>
  <line x1="64.00" y1="288.00" x2="544.00" y2="288.00" stroke="#8a8a8a" stroke-width="0.5"/>
  <text x="56.00" y="292.00" fill="#8a8a8a" text-anchor="end" font-family="ui-sans-serif,-apple-system,Segoe UI,Helvetica,Arial,sans-serif" font-size="12" font-weight="normal">0.00</text>
  <line x1="64.00" y1="226.10" x2="544.00" y2="226.10" stroke="#8a8a8a" stroke-width="0.5" stroke-dasharray="3 4"/>
  <text x="56.00" y="230.10" fill="#8a8a8a" text-anchor="end" font-family="ui-sans-serif,-apple-system,Segoe UI,Helvetica,Arial,sans-serif" font-size="12" font-weight="normal">0.25</text>
  <line x1="64.00" y1="164.19" x2="544.00" y2="164.19" stroke="#8a8a8a" stroke-width="0.5" stroke-dasharray="3 4"/>
  <text x="56.00" y="168.19" fill="#8a8a8a" text-anchor="end" font-family="ui-sans-serif,-apple-system,Segoe UI,Helvetica,Arial,sans-serif" font-size="12" font-weight="normal">0.50</text>
  <line x1="64.00" y1="102.29" x2="544.00" y2="102.29" stroke="#8a8a8a" stroke-width="0.5" stroke-dasharray="3 4"/>
  <text x="56.00" y="106.29" fill="#8a8a8a" text-anchor="end" font-family="ui-sans-serif,-apple-system,Segoe UI,Helvetica,Arial,sans-serif" font-size="12" font-weight="normal">0.75</text>
  <line x1="64.00" y1="40.38" x2="544.00" y2="40.38" stroke="#8a8a8a" stroke-width="0.5" stroke-dasharray="3 4"/>
  <text x="56.00" y="44.38" fill="#8a8a8a" text-anchor="end" font-family="ui-sans-serif,-apple-system,Segoe UI,Helvetica,Arial,sans-serif" font-size="12" font-weight="normal">1.00</text>
  <text x="64.00" y="306.00" fill="#8a8a8a" text-anchor="middle" font-family="ui-sans-serif,-apple-system,Segoe UI,Helvetica,Arial,sans-serif" font-size="12" font-weight="normal">0</text>
  <text x="184.00" y="306.00" fill="#8a8a8a" text-anchor="middle" font-family="ui-sans-serif,-apple-system,Segoe UI,Helvetica,Arial,sans-serif" font-size="12" font-weight="normal">6</text>
  <text x="304.00" y="306.00" fill="#8a8a8a" text-anchor="middle" font-family="ui-sans-serif,-apple-system,Segoe UI,Helvetica,Arial,sans-serif" font-size="12" font-weight="normal">12</text>
  <text x="424.00" y="306.00" fill="#8a8a8a" text-anchor="middle" font-family="ui-sans-serif,-apple-system,Segoe UI,Helvetica,Arial,sans-serif" font-size="12" font-weight="normal">18</text>
  <text x="544.00" y="306.00" fill="#8a8a8a" text-anchor="middle" font-family="ui-sans-serif,-apple-system,Segoe UI,Helvetica,Arial,sans-serif" font-size="12" font-weight="normal">24</text>
  <path d="M64.00 40.38 L65.20 40.38 L66.40 40.38 L67.60 40.38 L68.80 40.38 L70.00 40.38 L71.20 40.38 L72.40 40.38 L73.60 40.38 L74.80 40.38 L76.00 40.38 L77.20 40.38 L78.40 40.38 L79.60 40.38 L80.80 40.38 L82.00 40.38 L83.20 40.38 L84.40 40.38 L85.60 40.38 L86.80 40.38 L88.00 40.38 L89.20 40.38 L90.40 40.38 L91.60 40.38 L92.80 40.38 L94.00 40.38 L95.20 40.38 L96.40 40.38 L97.60 40.38 L98.80 40.38 L100.00 40.38 L101.20 40.38 L102.40 40.38 L103.60 40.38 L104.80 45.24 L106.00 52.17 L107.20 58.72 L108.40 64.92 L109.60 70.79 L110.80 76.36 L112.00 81.65 L113.20 86.68 L114.40 91.48 L115.60 96.05 L116.80 100.41 L118.00 104.58 L119.20 108.57 L120.40 112.38 L121.60 116.04 L122.80 119.55 L124.00 122.92 L125.20 126.16 L126.40 129.27 L127.60 132.26 L128.80 135.15 L130.00 137.93 L131.20 140.61 L132.40 143.19 L133.60 145.69 L134.80 148.10 L136.00 150.43 L137.20 152.69 L138.40 154.87 L139.60 156.98 L140.80 159.03 L142.00 161.02 L143.20 162.94 L144.40 164.81 L145.60 166.62 L146.80 168.38 L148.00 170.09 L149.20 171.75 L150.40 173.36 L151.60 174.93 L152.80 176.46 L154.00 177.95 L155.20 179.40 L156.40 180.81 L157.60 182.18 L158.80 183.52 L160.00 184.83 L161.20 186.10 L162.40 187.34 L163.60 188.55 L164.80 189.74 L166.00 190.89 L167.20 192.02 L168.40 193.13 L169.60 194.20 L170.80 195.26 L172.00 196.29 L173.20 197.30 L174.40 198.28 L175.60 199.25 L176.80 200.19 L178.00 201.12 L179.20 202.02 L180.40 202.91 L181.60 203.78 L182.80 204.63 L184.00 205.46 L185.20 206.28 L186.40 207.08 L187.60 207.86 L188.80 208.63 L190.00 209.39 L191.20 210.13 L192.40 210.86 L193.60 211.57 L194.80 212.28 L196.00 212.96 L197.20 213.64 L198.40 214.30 L199.60 214.96 L200.80 215.60 L202.00 216.23 L203.20 216.85 L204.40 217.45 L205.60 218.05 L206.80 218.64 L208.00 219.22 L209.20 219.79 L210.40 220.34 L211.60 220.89 L212.80 221.44 L214.00 221.97 L215.20 222.49 L216.40 223.01 L217.60 223.52 L218.80 224.02 L220.00 224.51 L221.20 224.99 L222.40 225.47 L223.60 225.94 L224.80 226.40 L226.00 226.86 L227.20 227.31 L228.40 227.75 L229.60 228.19 L230.80 228.62 L232.00 229.04 L233.20 229.46 L234.40 229.87 L235.60 230.28 L236.80 230.68 L238.00 231.08 L239.20 231.47 L240.40 231.85 L241.60 232.23 L242.80 232.60 L244.00 232.97 L245.20 233.34 L246.40 233.70 L247.60 234.05 L248.80 234.40 L250.00 234.75 L251.20 235.09 L252.40 235.43 L253.60 235.76 L254.80 236.09 L256.00 236.41 L257.20 236.73 L258.40 237.05 L259.60 237.36 L260.80 237.67 L262.00 237.98 L263.20 238.28 L264.40 238.58 L265.60 238.87 L266.80 239.16 L268.00 239.45 L269.20 239.73 L270.40 240.01 L271.60 240.29 L272.80 240.56 L274.00 240.83 L275.20 241.10 L276.40 241.37 L277.60 241.63 L278.80 241.89 L280.00 242.14 L281.20 242.40 L282.40 242.65 L283.60 242.90 L284.80 243.14 L286.00 243.38 L287.20 243.62 L288.40 243.86 L289.60 244.10 L290.80 244.33 L292.00 244.56 L293.20 244.79 L294.40 245.01 L295.60 245.23 L296.80 245.45 L298.00 245.67 L299.20 245.89 L300.40 246.10 L301.60 246.31 L302.80 246.52 L304.00 246.73 L305.20 246.94 L306.40 247.14 L307.60 247.34 L308.80 247.54 L310.00 247.74 L311.20 247.93 L312.40 248.13 L313.60 248.32 L314.80 248.51 L316.00 248.70 L317.20 248.88 L318.40 249.07 L319.60 249.25 L320.80 249.43 L322.00 249.61 L323.20 249.79 L324.40 249.96 L325.60 250.14 L326.80 250.31 L328.00 250.48 L329.20 250.65 L330.40 250.82 L331.60 250.99 L332.80 251.15 L334.00 251.32 L335.20 251.48 L336.40 251.64 L337.60 251.80 L338.80 251.96 L340.00 252.11 L341.20 252.27 L342.40 252.42 L343.60 252.58 L344.80 252.73 L346.00 252.88 L347.20 253.03 L348.40 253.17 L349.60 253.32 L350.80 253.46 L352.00 253.61 L353.20 253.75 L354.40 253.89 L355.60 254.03 L356.80 254.17 L358.00 254.31 L359.20 254.45 L360.40 254.58 L361.60 254.72 L362.80 254.85 L364.00 254.98 L365.20 255.12 L366.40 255.25 L367.60 255.38 L368.80 255.50 L370.00 255.63 L371.20 255.76 L372.40 255.88 L373.60 256.01 L374.80 256.13 L376.00 256.25 L377.20 256.38 L378.40 256.50 L379.60 256.62 L380.80 256.73 L382.00 256.85 L383.20 256.97 L384.40 257.09 L385.60 257.20 L386.80 257.32 L388.00 257.43 L389.20 257.54 L390.40 257.65 L391.60 257.77 L392.80 257.88 L394.00 257.99 L395.20 258.09 L396.40 258.20 L397.60 258.31 L398.80 258.42 L400.00 258.52 L401.20 258.63 L402.40 258.73 L403.60 258.83 L404.80 258.94 L406.00 259.04 L407.20 259.14 L408.40 259.24 L409.60 259.34 L410.80 259.44 L412.00 259.54 L413.20 259.64 L414.40 259.73 L415.60 259.83 L416.80 259.93 L418.00 260.02 L419.20 260.11 L420.40 260.21 L421.60 260.30 L422.80 260.39 L424.00 260.49 L425.20 260.58 L426.40 260.67 L427.60 260.76 L428.80 260.85 L430.00 260.94 L431.20 261.03 L432.40 261.11 L433.60 261.20 L434.80 261.29 L436.00 261.37 L437.20 261.46 L438.40 261.54 L439.60 261.63 L440.80 261.71 L442.00 261.80 L443.20 261.88 L444.40 261.96 L445.60 262.04 L446.80 262.13 L448.00 262.21 L449.20 262.29 L450.40 262.37 L451.60 262.45 L452.80 262.52 L454.00 262.60 L455.20 262.68 L456.40 262.76 L457.60 262.84 L458.80 262.91 L460.00 262.99 L461.20 263.06 L462.40 263.14 L463.60 263.21 L464.80 263.29 L466.00 263.36 L467.20 263.43 L468.40 263.51 L469.60 263.58 L470.80 263.65 L472.00 263.72 L473.20 263.79 L474.40 263.87 L475.60 263.94 L476.80 264.01 L478.00 264.08 L479.20 264.14 L480.40 264.21 L481.60 264.28 L482.80 264.35 L484.00 264.42 L485.20 264.48 L486.40 264.55 L487.60 264.62 L488.80 264.68 L490.00 264.75 L491.20 264.81 L492.40 264.88 L493.60 264.94 L494.80 265.01 L496.00 265.07 L497.20 265.14 L498.40 265.20 L499.60 265.26 L500.80 265.32 L502.00 265.39 L503.20 265.45 L504.40 265.51 L505.60 265.57 L506.80 265.63 L508.00 265.69 L509.20 265.75 L510.40 265.81 L511.60 265.87 L512.80 265.93 L514.00 265.99 L515.20 266.05 L516.40 266.11 L517.60 266.16 L518.80 266.22 L520.00 266.28 L521.20 266.34 L522.40 266.39 L523.60 266.45 L524.80 266.51 L526.00 266.56 L527.20 266.62 L528.40 266.67 L529.60 266.73 L530.80 266.78 L532.00 266.84 L533.20 266.89 L534.40 266.94 L535.60 267.00 L536.80 267.05 L538.00 267.10 L539.20 267.16 L540.40 267.21 L541.60 267.26 L542.80 267.31 L544.00 267.37" fill="none" stroke="#e05252" stroke-width="2.2" stroke-linejoin="round" stroke-linecap="round"/>
  <path d="M64.00 40.38 L65.20 40.38 L66.40 40.38 L67.60 40.38 L68.80 40.38 L70.00 40.38 L71.20 40.38 L72.40 40.38 L73.60 40.38 L74.80 40.38 L76.00 40.38 L77.20 40.38 L78.40 40.38 L79.60 40.38 L80.80 40.38 L82.00 40.38 L83.20 40.38 L84.40 40.38 L85.60 40.38 L86.80 40.38 L88.00 40.38 L89.20 40.38 L90.40 40.38 L91.60 40.38 L92.80 40.38 L94.00 40.38 L95.20 40.38 L96.40 40.38 L97.60 40.38 L98.80 40.38 L100.00 40.38 L101.20 40.38 L102.40 40.38 L103.60 40.38 L104.80 45.24 L106.00 52.17 L107.20 58.72 L108.40 64.92 L109.60 70.79 L110.80 76.36 L112.00 81.65 L113.20 86.68 L114.40 91.48 L115.60 96.05 L116.80 100.41 L118.00 104.58 L119.20 108.57 L120.40 112.38 L121.60 116.04 L122.80 119.55 L124.00 122.92 L125.20 126.16 L126.40 129.27 L127.60 132.26 L128.80 135.15 L130.00 137.93 L131.20 140.61 L132.40 143.19 L133.60 145.69 L134.80 148.10 L136.00 150.43 L137.20 152.69 L138.40 154.87 L139.60 156.98 L140.80 159.03 L142.00 161.02 L143.20 162.94 L144.40 164.81 L145.60 166.62 L146.80 168.38 L148.00 170.09 L149.20 171.75 L150.40 173.36 L151.60 174.93 L152.80 176.46 L154.00 177.95 L155.20 179.40 L156.40 180.81 L157.60 182.18 L158.80 183.52 L160.00 184.83 L161.20 186.10 L162.40 187.34 L163.60 188.55 L164.80 189.74 L166.00 190.89 L167.20 192.02 L168.40 193.13 L169.60 194.20 L170.80 195.26 L172.00 196.29 L173.20 197.30 L174.40 198.28 L175.60 199.25 L176.80 200.19 L178.00 201.12 L179.20 202.02 L180.40 202.91 L181.60 203.78 L182.80 204.63 L184.00 205.46 L185.20 206.28 L186.40 207.08 L187.60 207.86 L188.80 208.63 L190.00 209.39 L191.20 210.13 L192.40 210.86 L193.60 211.57 L194.80 212.28 L196.00 212.96 L197.20 213.64 L198.40 214.30 L199.60 214.96 L200.80 215.60 L202.00 216.23 L203.20 216.85 L204.40 217.45 L205.60 218.05 L206.80 218.64 L208.00 219.22 L209.20 219.79 L210.40 220.34 L211.60 220.89 L212.80 221.44 L214.00 221.97 L215.20 222.49 L216.40 223.01 L217.60 223.52 L218.80 224.02 L220.00 224.51 L221.20 224.99 L222.40 225.47 L223.60 225.94 L224.80 226.40 L226.00 226.86 L227.20 227.31 L228.40 227.75 L229.60 228.19 L230.80 228.62 L232.00 229.04 L233.20 229.46 L234.40 229.87 L235.60 230.28 L236.80 230.68 L238.00 231.08 L239.20 231.47 L240.40 231.85 L241.60 232.23 L242.80 232.60 L244.00 232.97 L245.20 233.34 L246.40 233.70 L247.60 234.05 L248.80 234.40 L250.00 234.75 L251.20 235.09 L252.40 235.43 L253.60 235.76 L254.80 236.09 L256.00 236.41 L257.20 236.73 L258.40 237.05 L259.60 237.36 L260.80 237.67 L262.00 237.98 L263.20 238.28 L264.40 238.58 L265.60 238.87 L266.80 239.16 L268.00 239.45 L269.20 239.73 L270.40 240.01 L271.60 240.29 L272.80 240.56 L274.00 240.83 L275.20 241.10 L276.40 241.37 L277.60 241.63 L278.80 241.89 L280.00 242.14 L281.20 242.40 L282.40 242.65 L283.60 242.90 L284.80 243.14 L286.00 243.38 L287.20 243.62 L288.40 243.86 L289.60 244.10 L290.80 244.33 L292.00 244.56 L293.20 244.79 L294.40 245.01 L295.60 245.23 L296.80 245.45 L298.00 245.67 L299.20 245.89 L300.40 246.10 L301.60 246.31 L302.80 246.52 L304.00 246.73 L305.20 246.94 L306.40 247.14 L307.60 247.34 L308.80 247.54 L310.00 247.74 L311.20 247.93 L312.40 248.13 L313.60 248.32 L314.80 248.51 L316.00 248.70 L317.20 248.88 L318.40 249.07 L319.60 249.25 L320.80 249.43 L322.00 249.61 L323.20 249.79 L324.40 249.96 L325.60 250.14 L326.80 250.31 L328.00 250.48 L329.20 250.65 L330.40 250.82 L331.60 250.99 L332.80 251.15 L334.00 251.32 L335.20 251.48 L336.40 251.64 L337.60 251.80 L338.80 251.96 L340.00 252.11 L341.20 252.27 L342.40 252.42 L343.60 252.58 L344.80 252.73 L346.00 252.88 L347.20 253.03 L348.40 253.17 L349.60 253.32 L350.80 253.46 L352.00 253.61 L353.20 253.75 L354.40 253.89 L355.60 254.03 L356.80 254.17 L358.00 254.31 L359.20 254.45 L360.40 254.58 L361.60 254.72 L362.80 254.85 L364.00 254.98 L365.20 255.12 L366.40 255.25 L367.60 255.38 L368.80 255.50 L370.00 255.63 L371.20 255.76 L372.40 255.88 L373.60 256.01 L374.80 256.13 L376.00 256.25 L377.20 256.38 L378.40 256.50 L379.60 256.62 L380.80 256.73 L382.00 256.85 L383.20 256.97 L384.40 257.09 L385.60 257.20 L386.80 257.32 L388.00 257.43 L389.20 257.54 L390.40 257.65 L391.60 257.77 L392.80 257.88 L394.00 257.99 L395.20 258.09 L396.40 258.20 L397.60 258.31 L398.80 258.42 L400.00 258.52 L401.20 258.63 L402.40 258.73 L403.60 258.83 L404.80 258.94 L406.00 259.04 L407.20 259.14 L408.40 259.24 L409.60 259.34 L410.80 259.44 L412.00 259.54 L413.20 259.64 L414.40 259.73 L415.60 259.83 L416.80 259.93 L418.00 260.02 L419.20 260.11 L420.40 260.21 L421.60 260.30 L422.80 260.39 L424.00 260.49 L425.20 260.58 L426.40 260.67 L427.60 260.76 L428.80 260.85 L430.00 260.94 L431.20 261.03 L432.40 261.11 L433.60 261.20 L434.80 261.29 L436.00 261.37 L437.20 261.46 L438.40 261.54 L439.60 261.63 L440.80 261.71 L442.00 261.80 L443.20 261.88 L444.40 261.96 L445.60 262.04 L446.80 262.13 L448.00 262.21 L449.20 262.29 L450.40 262.37 L451.60 262.45 L452.80 262.52 L454.00 262.60 L455.20 262.68 L456.40 262.76 L457.60 262.84 L458.80 262.91 L460.00 262.99 L461.20 263.06 L462.40 263.14 L463.60 263.21 L464.80 263.29 L466.00 263.36 L467.20 263.43 L468.40 263.51 L469.60 263.58 L470.80 263.65 L472.00 263.72 L473.20 263.79 L474.40 263.87 L475.60 263.94 L476.80 264.01 L478.00 264.08 L479.20 264.14 L480.40 264.21 L481.60 264.28 L482.80 264.35 L484.00 264.42 L485.20 264.48 L486.40 264.55 L487.60 264.62 L488.80 264.68 L490.00 264.75 L491.20 264.81 L492.40 264.88 L493.60 264.94 L494.80 265.01 L496.00 265.07 L497.20 265.14 L498.40 265.20 L499.60 265.26 L500.80 265.32 L502.00 265.39 L503.20 265.45 L504.40 265.51 L505.60 265.57 L506.80 265.63 L508.00 265.69 L509.20 265.75 L510.40 265.81 L511.60 265.87 L512.80 265.93 L514.00 265.99 L515.20 266.05 L516.40 266.11 L517.60 266.16 L518.80 266.22 L520.00 266.28 L521.20 266.34 L522.40 266.39 L523.60 266.45 L524.80 266.51 L526.00 266.56 L527.20 266.62 L528.40 266.67 L529.60 266.73 L530.80 266.78 L532.00 266.84 L533.20 266.89 L534.40 266.94 L535.60 267.00 L536.80 267.05 L538.00 267.10 L539.20 267.16 L540.40 267.21 L541.60 267.26 L542.80 267.31 L544.00 267.37" fill="none" stroke="#3d8fd8" stroke-width="2.2" stroke-linejoin="round" stroke-linecap="round" stroke-dasharray="7 5"/>
  <path d="M64.00 40.38 L65.20 40.38 L66.40 40.38 L67.60 40.38 L68.80 40.38 L70.00 40.38 L71.20 40.38 L72.40 40.38 L73.60 40.38 L74.80 40.38 L76.00 40.38 L77.20 40.38 L78.40 40.38 L79.60 40.38 L80.80 40.38 L82.00 40.38 L83.20 40.38 L84.40 40.38 L85.60 40.38 L86.80 40.38 L88.00 40.38 L89.20 40.38 L90.40 40.38 L91.60 40.38 L92.80 40.38 L94.00 40.38 L95.20 40.38 L96.40 40.38 L97.60 40.38 L98.80 40.38 L100.00 40.38 L101.20 40.38 L102.40 40.38 L103.60 40.38 L104.80 41.09 L106.00 42.15 L107.20 43.21 L108.40 44.27 L109.60 45.33 L110.80 46.39 L112.00 47.46 L113.20 48.52 L114.40 49.58 L115.60 50.64 L116.80 51.70 L118.00 52.76 L119.20 53.82 L120.40 54.88 L121.60 55.95 L122.80 57.01 L124.00 58.07 L125.20 59.13 L126.40 60.19 L127.60 61.25 L128.80 62.31 L130.00 63.37 L131.20 64.44 L132.40 65.50 L133.60 66.56 L134.80 67.62 L136.00 68.68 L137.20 69.74 L138.40 70.80 L139.60 71.86 L140.80 72.93 L142.00 73.99 L143.20 75.05 L144.40 76.11 L145.60 77.17 L146.80 78.23 L148.00 79.29 L149.20 80.35 L150.40 81.41 L151.60 82.48 L152.80 83.54 L154.00 84.60 L155.20 85.66 L156.40 86.72 L157.60 87.78 L158.80 88.84 L160.00 89.90 L161.20 90.97 L162.40 92.03 L163.60 93.09 L164.80 94.15 L166.00 95.21 L167.20 96.27 L168.40 97.33 L169.60 98.39 L170.80 99.46 L172.00 100.52 L173.20 101.58 L174.40 102.64 L175.60 103.70 L176.80 104.76 L178.00 105.82 L179.20 106.88 L180.40 107.95 L181.60 109.01 L182.80 110.07 L184.00 111.13 L185.20 112.19 L186.40 113.25 L187.60 114.31 L188.80 115.37 L190.00 116.44 L191.20 117.50 L192.40 118.56 L193.60 119.62 L194.80 120.68 L196.00 121.74 L197.20 122.80 L198.40 123.86 L199.60 124.93 L200.80 125.99 L202.00 127.05 L203.20 128.11 L204.40 129.17 L205.60 130.23 L206.80 131.29 L208.00 132.35 L209.20 133.41 L210.40 134.48 L211.60 135.54 L212.80 136.60 L214.00 137.66 L215.20 138.72 L216.40 139.78 L217.60 140.84 L218.80 141.90 L220.00 142.97 L221.20 144.03 L222.40 145.09 L223.60 146.15 L224.80 147.21 L226.00 148.27 L227.20 149.33 L228.40 150.39 L229.60 151.46 L230.80 152.52 L232.00 153.58 L233.20 154.64 L234.40 155.70 L235.60 156.76 L236.80 157.82 L238.00 158.88 L239.20 159.95 L240.40 161.01 L241.60 162.07 L242.80 163.13 L244.00 164.19 L245.20 165.25 L246.40 166.31 L247.60 167.37 L248.80 168.44 L250.00 169.50 L251.20 170.56 L252.40 171.62 L253.60 172.68 L254.80 173.74 L256.00 174.80 L257.20 175.86 L258.40 176.93 L259.60 177.99 L260.80 179.05 L262.00 180.11 L263.20 181.17 L264.40 182.23 L265.60 183.29 L266.80 184.35 L268.00 185.41 L269.20 186.48 L270.40 187.54 L271.60 188.60 L272.80 189.66 L274.00 190.72 L275.20 191.78 L276.40 192.84 L277.60 193.90 L278.80 194.97 L280.00 196.03 L281.20 197.09 L282.40 198.15 L283.60 199.21 L284.80 200.27 L286.00 201.33 L287.20 202.39 L288.40 203.46 L289.60 204.52 L290.80 205.58 L292.00 206.64 L293.20 207.70 L294.40 208.76 L295.60 209.82 L296.80 210.88 L298.00 211.95 L299.20 213.01 L300.40 214.07 L301.60 215.13 L302.80 216.19 L304.00 217.25 L305.20 218.31 L306.40 219.37 L307.60 220.44 L308.80 221.50 L310.00 222.56 L311.20 223.62 L312.40 224.68 L313.60 225.74 L314.80 226.80 L316.00 227.86 L317.20 228.93 L318.40 229.99 L319.60 231.05 L320.80 232.11 L322.00 233.17 L323.20 234.23 L324.40 235.29 L325.60 236.35 L326.80 237.41 L328.00 238.48 L329.20 239.54 L330.40 240.60 L331.60 241.66 L332.80 242.72 L334.00 243.78 L335.20 244.84 L336.40 245.90 L337.60 246.97 L338.80 248.03 L340.00 249.09 L341.20 250.15 L342.40 251.21 L343.60 252.27 L344.80 253.33 L346.00 254.39 L347.20 255.46 L348.40 256.52 L349.60 257.58 L350.80 258.64 L352.00 259.70 L353.20 260.76 L354.40 261.82 L355.60 262.88 L356.80 263.95 L358.00 265.01 L359.20 266.07 L360.40 267.13 L361.60 268.19 L362.80 269.25 L364.00 270.31 L365.20 271.37 L366.40 272.44 L367.60 273.50 L368.80 274.56 L370.00 275.62 L371.20 276.68 L372.40 277.74 L373.60 278.80 L374.80 279.86 L376.00 280.93 L377.20 281.99 L378.40 283.05 L379.60 284.11 L380.80 285.17 L382.00 286.23 L383.20 287.29 L384.40 288.00 L385.60 288.00 L386.80 288.00 L388.00 288.00 L389.20 288.00 L390.40 288.00 L391.60 288.00 L392.80 288.00 L394.00 288.00 L395.20 288.00 L396.40 288.00 L397.60 288.00 L398.80 288.00 L400.00 288.00 L401.20 288.00 L402.40 288.00 L403.60 288.00 L404.80 288.00 L406.00 288.00 L407.20 288.00 L408.40 288.00 L409.60 288.00 L410.80 288.00 L412.00 288.00 L413.20 288.00 L414.40 288.00 L415.60 288.00 L416.80 288.00 L418.00 288.00 L419.20 288.00 L420.40 288.00 L421.60 288.00 L422.80 288.00 L424.00 288.00 L425.20 288.00 L426.40 288.00 L427.60 288.00 L428.80 288.00 L430.00 288.00 L431.20 288.00 L432.40 288.00 L433.60 288.00 L434.80 288.00 L436.00 288.00 L437.20 288.00 L438.40 288.00 L439.60 288.00 L440.80 288.00 L442.00 288.00 L443.20 288.00 L444.40 288.00 L445.60 288.00 L446.80 288.00 L448.00 288.00 L449.20 288.00 L450.40 288.00 L451.60 288.00 L452.80 288.00 L454.00 288.00 L455.20 288.00 L456.40 288.00 L457.60 288.00 L458.80 288.00 L460.00 288.00 L461.20 288.00 L462.40 288.00 L463.60 288.00 L464.80 288.00 L466.00 288.00 L467.20 288.00 L468.40 288.00 L469.60 288.00 L470.80 288.00 L472.00 288.00 L473.20 288.00 L474.40 288.00 L475.60 288.00 L476.80 288.00 L478.00 288.00 L479.20 288.00 L480.40 288.00 L481.60 288.00 L482.80 288.00 L484.00 288.00 L485.20 288.00 L486.40 288.00 L487.60 288.00 L488.80 288.00 L490.00 288.00 L491.20 288.00 L492.40 288.00 L493.60 288.00 L494.80 288.00 L496.00 288.00 L497.20 288.00 L498.40 288.00 L499.60 288.00 L500.80 288.00 L502.00 288.00 L503.20 288.00 L504.40 288.00 L505.60 288.00 L506.80 288.00 L508.00 288.00 L509.20 288.00 L510.40 288.00 L511.60 288.00 L512.80 288.00 L514.00 288.00 L515.20 288.00 L516.40 288.00 L517.60 288.00 L518.80 288.00 L520.00 288.00 L521.20 288.00 L522.40 288.00 L523.60 288.00 L524.80 288.00 L526.00 288.00 L527.20 288.00 L528.40 288.00 L529.60 288.00 L530.80 288.00 L532.00 288.00 L533.20 288.00 L534.40 288.00 L535.60 288.00 L536.80 288.00 L538.00 288.00 L539.20 288.00 L540.40 288.00 L541.60 288.00 L542.80 288.00 L544.00 288.00" fill="none" stroke="#3fa860" stroke-width="2.2" stroke-linejoin="round" stroke-linecap="round"/>
  <line x1="104.00" y1="28.00" x2="104.00" y2="288.00" stroke="#d1902a" stroke-width="1.2" stroke-dasharray="4 4"/>
  <text x="109.00" y="40.00" fill="#d1902a" text-anchor="start" font-family="ui-sans-serif,-apple-system,Segoe UI,Helvetica,Arial,sans-serif" font-size="12" font-weight="normal">refDistance</text>
  <line x1="384.00" y1="28.00" x2="384.00" y2="288.00" stroke="#9a72d0" stroke-width="1.2" stroke-dasharray="4 4"/>
  <text x="389.00" y="40.00" fill="#9a72d0" text-anchor="start" font-family="ui-sans-serif,-apple-system,Segoe UI,Helvetica,Arial,sans-serif" font-size="12" font-weight="normal">maxDistance</text>
  <line x1="64.00" y1="312.00" x2="92.00" y2="312.00" stroke="#e05252" stroke-width="2.2"/>
  <text x="100.00" y="316.00" fill="#a8a8a8" text-anchor="start" font-family="ui-sans-serif,-apple-system,Segoe UI,Helvetica,Arial,sans-serif" font-size="12" font-weight="normal">inverse (default)</text>
  <line x1="64.00" y1="330.00" x2="92.00" y2="330.00" stroke="#3d8fd8" stroke-width="2.2" stroke-dasharray="7 5"/>
  <text x="100.00" y="334.00" fill="#a8a8a8" text-anchor="start" font-family="ui-sans-serif,-apple-system,Segoe UI,Helvetica,Arial,sans-serif" font-size="12" font-weight="normal">exponential</text>
  <line x1="64.00" y1="348.00" x2="92.00" y2="348.00" stroke="#3fa860" stroke-width="2.2"/>
  <text x="100.00" y="352.00" fill="#a8a8a8" text-anchor="start" font-family="ui-sans-serif,-apple-system,Segoe UI,Helvetica,Arial,sans-serif" font-size="12" font-weight="normal">linear</text>
  <text x="300.00" y="316.00" fill="#a8a8a8" text-anchor="start" font-family="ui-sans-serif,-apple-system,Segoe UI,Helvetica,Arial,sans-serif" font-size="12" font-weight="normal">Only linear reaches silence, and it does so</text>
  <text x="300.00" y="334.00" fill="#a8a8a8" text-anchor="start" font-family="ui-sans-serif,-apple-system,Segoe UI,Helvetica,Arial,sans-serif" font-size="12" font-weight="normal">at maxDistance. The other two fall for ever</text>
  <text x="300.00" y="352.00" fill="#a8a8a8" text-anchor="start" font-family="ui-sans-serif,-apple-system,Segoe UI,Helvetica,Arial,sans-serif" font-size="12" font-weight="normal">and never use maxDistance at all.</text>
  <text x="64.00" y="380.00" fill="#a8a8a8" text-anchor="start" font-family="ui-sans-serif,-apple-system,Segoe UI,Helvetica,Arial,sans-serif" font-size="12" font-weight="normal">At rolloffFactor 1 — the default, and what is drawn here —</text>
  <text x="64.00" y="398.00" fill="#a8a8a8" text-anchor="start" font-family="ui-sans-serif,-apple-system,Segoe UI,Helvetica,Arial,sans-serif" font-size="12" font-weight="normal">inverse and exponential are the same curve, so the dashed</text>
  <text x="64.00" y="416.00" fill="#a8a8a8" text-anchor="start" font-family="ui-sans-serif,-apple-system,Segoe UI,Helvetica,Arial,sans-serif" font-size="12" font-weight="normal">line lies exactly on the solid one.</text>
  <text x="304.00" y="328.00" fill="#8a8a8a" text-anchor="middle" font-family="ui-sans-serif,-apple-system,Segoe UI,Helvetica,Arial,sans-serif" font-size="12" font-weight="normal">distance from the listener (m)</text>
  <text x="20.00" y="158.00" fill="#8a8a8a" text-anchor="middle" font-family="ui-sans-serif,-apple-system,Segoe UI,Helvetica,Arial,sans-serif" font-size="12" font-weight="normal">gain</text>
  <line x1="64.00" y1="28.00" x2="64.00" y2="288.00" stroke="#8a8a8a" stroke-width="1.0"/>
  <line x1="64.00" y1="288.00" x2="544.00" y2="288.00" stroke="#8a8a8a" stroke-width="1.0"/>
  </g>
</svg>
